<?xml version="1.0" encoding="UTF-8"?>
<svg width="512" height="512" viewBox="0 0 512 512" xmlns="http://www.w3.org/2000/svg">
  <defs>
    <radialGradient id="g" cx="50%" cy="40%" r="75%">
      <stop offset="0%" stop-color="#0B5563"/>
      <stop offset="100%" stop-color="#092436"/>
    </radialGradient>
  </defs>
  <rect x="0" y="0" width="512" height="512" rx="96" ry="96" fill="url(#g)"/>
  <!-- Simple "S" until brand PNG/ICO are added -->
  <path fill="#FFFFFF" d="M354 168c0-42-37-74-98-74-49 0-93 19-120 49l47 28c16-19 43-30 73-30 31 0 50 12 50 30 0 19-19 26-65 33-65 9-109 31-109 85 0 49 44 82 108 82 48 0 86-16 113-44l-44-30c-18 18-43 28-70 28-31 0-51-12-51-30 0-20 20-27 64-33 66-10 102-32 102-84z"/>
</svg>
