<svg xmlns="http://www.w3.org/2000/svg" viewBox="0 0 64 64" role="img" aria-label="SkyShare Maintenance">
  <defs>
    <linearGradient id="skyshareGradient" x1="0" y1="64" x2="64" y2="0" gradientUnits="userSpaceOnUse">
      <stop offset="0" stop-color="#0f172a" />
      <stop offset="1" stop-color="#38bdf8" />
    </linearGradient>
  </defs>
  <rect width="64" height="64" rx="14" fill="url(#skyshareGradient)" />
  <path
    fill="#f8fafc"
    d="M20.5 43c1.8 4.2 6.2 7 11.5 7 7.4 0 13-4.4 13-10.6 0-5-3.3-7.6-10.7-9.2l-3.3-.7c-3.9-.8-5.4-1.8-5.4-3.7 0-2.4 2.5-4 6-4 4 0 6.7 1.9 8 5.1l6.3-2.2C44 19 38.9 15 31.7 15c-7 0-12.4 4.5-12.4 10.6 0 5.4 3.4 8.3 10.7 9.8l3.6.8c3.9.9 5.1 1.9 5.1 3.6 0 2.3-2.6 4-6.5 4-4.3 0-7.2-1.8-8.8-5.1z"
  />
</svg>
