<svg xmlns="http://www.w3.org/2000/svg" viewBox="0 0 1920 1080" width="1920" height="1080" preserveAspectRatio="xMidYMid meet" style="width: 100%; height: 100%; transform: translate3d(0px, 0px, 0px);"><defs><clipPath id="__lottie_element_2"><rect width="1920" height="1080" x="0" y="0"></rect></clipPath></defs><g clip-path="url(#__lottie_element_2)"><g style="display: block;" transform="matrix(10.437479972839355,0,0,10.437479972839355,1884,380)" opacity="1"><g opacity="1" transform="matrix(1,0,0,1,0,0)"><path fill="rgb(212,160,23)" fill-opacity="1" d=" M-25.06399917602539,0 C-25.06399917602539,0 -5.203000068664551,0 -5.203000068664551,0 C-5.203000068664551,0 -5.203000068664551,-5.105000019073486 -5.203000068664551,-5.105000019073486 C-5.203000068664551,-5.105000019073486 -19.363000869750977,-5.105000019073486 -19.363000869750977,-5.105000019073486 C-19.363000869750977,-5.105000019073486 -19.363000869750977,-10.581999778747559 -19.363000869750977,-10.581999778747559 C-19.363000869750977,-10.581999778747559 -7.065999984741211,-10.581999778747559 -7.065999984741211,-10.581999778747559 C-7.065999984741211,-10.581999778747559 -7.065999984741211,-15.687000274658203 -7.065999984741211,-15.687000274658203 C-7.065999984741211,-15.687000274658203 -19.363000869750977,-15.687000274658203 -19.363000869750977,-15.687000274658203 C-19.363000869750977,-15.687000274658203 -19.363000869750977,-20.97800064086914 -19.363000869750977,-20.97800064086914 C-19.363000869750977,-20.97800064086914 -5.389999866485596,-20.97800064086914 -5.389999866485596,-20.97800064086914 C-5.389999866485596,-20.97800064086914 -5.389999866485596,-26.08300018310547 -5.389999866485596,-26.08300018310547 C-5.389999866485596,-26.08300018310547 -25.06399917602539,-26.08300018310547 -25.06399917602539,-26.08300018310547 C-25.06399917602539,-26.08300018310547 -25.06399917602539,0 -25.06399917602539,0z"></path></g><g opacity="1" transform="matrix(1,0,0,1,0,0)"><path fill="rgb(212,160,23)" fill-opacity="1" d=" M-41.10100173950195,0.1860000044107437 C-41.10100173950195,0.1860000044107437 -36.03300094604492,0.1860000044107437 -36.03300094604492,0.1860000044107437 C-36.03300094604492,0.1860000044107437 -25.488000869750977,-26.08300018310547 -25.488000869750977,-26.08300018310547 C-25.488000869750977,-26.08300018310547 -31.67300033569336,-26.08300018310547 -31.67300033569336,-26.08300018310547 C-31.67300033569336,-26.08300018310547 -38.492000579833984,-7.7129998207092285 -38.492000579833984,-7.7129998207092285 C-38.492000579833984,-7.7129998207092285 -45.31100082397461,-26.08300018310547 -45.31100082397461,-26.08300018310547 C-45.31100082397461,-26.08300018310547 -51.645999908447266,-26.08300018310547 -51.645999908447266,-26.08300018310547 C-51.645999908447266,-26.08300018310547 -41.10100173950195,0.1860000044107437 -41.10100173950195,0.1860000044107437z"></path></g><g opacity="1" transform="matrix(1,0,0,1,0,0)"><path fill="rgb(212,160,23)" fill-opacity="1" d=" M-63.047000885009766,-4.843999862670898 C-67.66699981689453,-4.843999862670898 -70.9469985961914,-8.571000099182129 -70.9469985961914,-13.041999816894531 C-70.9469985961914,-13.041999816894531 -70.9469985961914,-13.116000175476074 -70.9469985961914,-13.116000175476074 C-70.9469985961914,-17.586999893188477 -67.74199676513672,-21.23900032043457 -63.12200164794922,-21.23900032043457 C-58.50199890136719,-21.23900032043457 -55.22200012207031,-17.51300048828125 -55.22200012207031,-13.041999816894531 C-55.22200012207031,-13.041999816894531 -55.22200012207031,-12.967000007629395 -55.22200012207031,-12.967000007629395 C-55.22200012207031,-8.496000289916992 -58.426998138427734,-4.843999862670898 -63.047000885009766,-4.843999862670898z M-63.12200164794922,0.44699999690055847 C-55.073001861572266,0.44699999690055847 -49.222999572753906,-5.626999855041504 -49.222999572753906,-13.041999816894531 C-49.222999572753906,-13.041999816894531 -49.222999572753906,-13.116000175476074 -49.222999572753906,-13.116000175476074 C-49.222999572753906,-20.5310001373291 -54.99800109863281,-26.5310001373291 -63.047000885009766,-26.5310001373291 C-71.09600067138672,-26.5310001373291 -76.94599914550781,-20.457000732421875 -76.94599914550781,-13.041999816894531 C-76.94599914550781,-13.041999816894531 -76.94599914550781,-12.967000007629395 -76.94599914550781,-12.967000007629395 C-76.94599914550781,-5.552000045776367 -71.1709976196289,0.44699999690055847 -63.12200164794922,0.44699999690055847z"></path></g><g opacity="1" transform="matrix(1,0,0,1,0,0)"><path fill="rgb(212,160,23)" fill-opacity="1" d=" M-93.80999755859375,0 C-93.80999755859375,0 -75.06700134277344,0 -75.06700134277344,0 C-75.06700134277344,0 -75.06700134277344,-5.2170000076293945 -75.06700134277344,-5.2170000076293945 C-75.06700134277344,-5.2170000076293945 -88.0719985961914,-5.2170000076293945 -88.0719985961914,-5.2170000076293945 C-88.0719985961914,-5.2170000076293945 -88.0719985961914,-26.08300018310547 -88.0719985961914,-26.08300018310547 C-88.0719985961914,-26.08300018310547 -93.80999755859375,-26.08300018310547 -93.80999755859375,-26.08300018310547 C-93.80999755859375,-26.08300018310547 -93.80999755859375,0 -93.80999755859375,0z"></path></g></g><g style="display: block;" transform="matrix(10.437479972839355,0,0,10.437479972839355,1884,670)" opacity="1"><g opacity="1" transform="matrix(1,0,0,1,0,0)"><path fill="rgb(212,160,23)" fill-opacity="1" d=" M-21.285999298095703,-13.413999557495117 C-21.285999298095703,-13.413999557495117 -21.285999298095703,-20.90399932861328 -21.285999298095703,-20.90399932861328 C-21.285999298095703,-20.90399932861328 -15.585000038146973,-20.90399932861328 -15.585000038146973,-20.90399932861328 C-12.789999961853027,-20.90399932861328 -11.07699966430664,-19.636999130249023 -11.07699966430664,-17.17799949645996 C-11.07699966430664,-17.17799949645996 -11.07699966430664,-17.10300064086914 -11.07699966430664,-17.10300064086914 C-11.07699966430664,-14.904999732971191 -12.678999900817871,-13.413999557495117 -15.473999977111816,-13.413999557495117 C-15.473999977111816,-13.413999557495117 -21.285999298095703,-13.413999557495117 -21.285999298095703,-13.413999557495117z M-27.024999618530273,0 C-27.024999618530273,0 -21.285999298095703,0 -21.285999298095703,0 C-21.285999298095703,0 -21.285999298095703,-8.347000122070312 -21.285999298095703,-8.347000122070312 C-21.285999298095703,-8.347000122070312 -16.777999877929688,-8.347000122070312 -16.777999877929688,-8.347000122070312 C-16.777999877929688,-8.347000122070312 -11.187999725341797,0 -11.187999725341797,0 C-11.187999725341797,0 -4.480999946594238,0 -4.480999946594238,0 C-4.480999946594238,0 -10.852999687194824,-9.3149995803833 -10.852999687194824,-9.3149995803833 C-7.5370001792907715,-10.545000076293945 -5.263999938964844,-13.1899995803833 -5.263999938964844,-17.400999069213867 C-5.263999938964844,-17.400999069213867 -5.263999938964844,-17.47599983215332 -5.263999938964844,-17.47599983215332 C-5.263999938964844,-19.934999465942383 -6.046000003814697,-21.985000610351562 -7.499000072479248,-23.437999725341797 C-9.213000297546387,-25.152000427246094 -11.78499984741211,-26.08300018310547 -15.10099983215332,-26.08300018310547 C-15.10099983215332,-26.08300018310547 -27.024999618530273,-26.08300018310547 -27.024999618530273,-26.08300018310547 C-27.024999618530273,-26.08300018310547 -27.024999618530273,0 -27.024999618530273,0z"></path></g><g opacity="1" transform="matrix(1,0,0,1,0,0)"><path fill="rgb(212,160,23)" fill-opacity="1" d=" M-40.71200180053711,0.4099999964237213 C-33.707000732421875,0.4099999964237213 -29.273000717163086,-3.4649999141693115 -29.273000717163086,-11.364999771118164 C-29.273000717163086,-11.364999771118164 -29.273000717163086,-26.08300018310547 -29.273000717163086,-26.08300018310547 C-29.273000717163086,-26.08300018310547 -35.01100158691406,-26.08300018310547 -35.01100158691406,-26.08300018310547 C-35.01100158691406,-26.08300018310547 -35.01100158691406,-11.140999794006348 -35.01100158691406,-11.140999794006348 C-35.01100158691406,-7.005000114440918 -37.1349983215332,-4.88100004196167 -40.63800048828125,-4.88100004196167 C-44.14099884033203,-4.88100004196167 -46.263999938964844,-7.079999923706055 -46.263999938964844,-11.32800006866455 C-46.263999938964844,-11.32800006866455 -46.263999938964844,-26.08300018310547 -46.263999938964844,-26.08300018310547 C-46.263999938964844,-26.08300018310547 -52.00299835205078,-26.08300018310547 -52.00299835205078,-26.08300018310547 C-52.00299835205078,-26.08300018310547 -52.00299835205078,-11.178999900817871 -52.00299835205078,-11.178999900817871 C-52.00299835205078,-3.503000020980835 -47.71699905395508,0.4099999964237213 -40.71200180053711,0.4099999964237213z"></path></g><g opacity="1" transform="matrix(1,0,0,1,0,0)"><path fill="rgb(212,160,23)" fill-opacity="1" d=" M-66.8949966430664,-4.843999862670898 C-71.51499938964844,-4.843999862670898 -74.79499816894531,-8.571000099182129 -74.79499816894531,-13.041999816894531 C-74.79499816894531,-13.041999816894531 -74.79499816894531,-13.116000175476074 -74.79499816894531,-13.116000175476074 C-74.79499816894531,-17.586999893188477 -71.58999633789062,-21.23900032043457 -66.97000122070312,-21.23900032043457 C-62.349998474121094,-21.23900032043457 -59.06999969482422,-17.51300048828125 -59.06999969482422,-13.041999816894531 C-59.06999969482422,-13.041999816894531 -59.06999969482422,-12.967000007629395 -59.06999969482422,-12.967000007629395 C-59.06999969482422,-8.496000289916992 -62.275001525878906,-4.843999862670898 -66.8949966430664,-4.843999862670898z M-66.97000122070312,0.44699999690055847 C-58.92100143432617,0.44699999690055847 -53.07099914550781,-5.626999855041504 -53.07099914550781,-13.041999816894531 C-53.07099914550781,-13.041999816894531 -53.07099914550781,-13.116000175476074 -53.07099914550781,-13.116000175476074 C-53.07099914550781,-20.5310001373291 -58.84600067138672,-26.5310001373291 -66.8949966430664,-26.5310001373291 C-74.94400024414062,-26.5310001373291 -80.79399871826172,-20.457000732421875 -80.79399871826172,-13.041999816894531 C-80.79399871826172,-13.041999816894531 -80.79399871826172,-12.967000007629395 -80.79399871826172,-12.967000007629395 C-80.79399871826172,-5.552000045776367 -75.01899719238281,0.44699999690055847 -66.97000122070312,0.44699999690055847z"></path></g><g opacity="1" transform="matrix(1,0,0,1,0,0)"><path fill="rgb(212,160,23)" fill-opacity="1" d=" M-93.16600036621094,0 C-93.16600036621094,0 -87.4280014038086,0 -87.4280014038086,0 C-87.4280014038086,0 -87.4280014038086,-10.395999908447266 -87.4280014038086,-10.395999908447266 C-87.4280014038086,-10.395999908447266 -77.40399932861328,-26.08300018310547 -77.40399932861328,-26.08300018310547 C-77.40399932861328,-26.08300018310547 -83.92500305175781,-26.08300018310547 -83.92500305175781,-26.08300018310547 C-83.92500305175781,-26.08300018310547 -90.26000213623047,-15.61299991607666 -90.26000213623047,-15.61299991607666 C-90.26000213623047,-15.61299991607666 -96.48200225830078,-26.08300018310547 -96.48200225830078,-26.08300018310547 C-96.48200225830078,-26.08300018310547 -103.19000244140625,-26.08300018310547 -103.19000244140625,-26.08300018310547 C-103.19000244140625,-26.08300018310547 -93.16600036621094,-10.284000396728516 -93.16600036621094,-10.284000396728516 C-93.16600036621094,-10.284000396728516 -93.16600036621094,0 -93.16600036621094,0z"></path></g></g><g style="display: block;" transform="matrix(10.437479972839355,0,0,10.437479972839355,1884,960)" opacity="1"><g opacity="1" transform="matrix(1,0,0,1,0,0)"><path fill="rgb(212,160,23)" fill-opacity="1" d=" M-11.675000190734863,0 C-11.675000190734863,0 -5.638999938964844,0 -5.638999938964844,0 C-5.638999938964844,0 -5.638999938964844,-5.961999893188477 -5.638999938964844,-5.961999893188477 C-5.638999938964844,-5.961999893188477 -11.675000190734863,-5.961999893188477 -11.675000190734863,-5.961999893188477 C-11.675000190734863,-5.961999893188477 -11.675000190734863,0 -11.675000190734863,0z"></path></g><g opacity="1" transform="matrix(1,0,0,1,0,0)"><path fill="rgb(212,160,23)" fill-opacity="1" d=" M-21.792999267578125,0 C-21.792999267578125,0 -16.05500030517578,0 -16.05500030517578,0 C-16.05500030517578,0 -16.05500030517578,-10.395999908447266 -16.05500030517578,-10.395999908447266 C-16.05500030517578,-10.395999908447266 -6.031000137329102,-26.08300018310547 -6.031000137329102,-26.08300018310547 C-6.031000137329102,-26.08300018310547 -12.552000045776367,-26.08300018310547 -12.552000045776367,-26.08300018310547 C-12.552000045776367,-26.08300018310547 -18.88599967956543,-15.61299991607666 -18.88599967956543,-15.61299991607666 C-18.88599967956543,-15.61299991607666 -25.108999252319336,-26.08300018310547 -25.108999252319336,-26.08300018310547 C-25.108999252319336,-26.08300018310547 -31.81599998474121,-26.08300018310547 -31.81599998474121,-26.08300018310547 C-31.81599998474121,-26.08300018310547 -21.792999267578125,-10.284000396728516 -21.792999267578125,-10.284000396728516 C-21.792999267578125,-10.284000396728516 -21.792999267578125,0 -21.792999267578125,0z"></path></g><g opacity="1" transform="matrix(1,0,0,1,0,0)"><path fill="rgb(212,160,23)" fill-opacity="1" d=" M-78.0479965209961,0 C-78.0479965209961,0 -72.38400268554688,0 -72.38400268554688,0 C-72.38400268554688,0 -72.38400268554688,-16.582000732421875 -72.38400268554688,-16.582000732421875 C-72.38400268554688,-16.582000732421875 -59.75199890136719,0 -59.75199890136719,0 C-59.75199890136719,0 -54.87099838256836,0 -54.87099838256836,0 C-54.87099838256836,0 -54.87099838256836,-26.08300018310547 -54.87099838256836,-26.08300018310547 C-54.87099838256836,-26.08300018310547 -60.534000396728516,-26.08300018310547 -60.534000396728516,-26.08300018310547 C-60.534000396728516,-26.08300018310547 -60.534000396728516,-10.02299976348877 -60.534000396728516,-10.02299976348877 C-60.534000396728516,-10.02299976348877 -72.75599670410156,-26.08300018310547 -72.75599670410156,-26.08300018310547 C-72.75599670410156,-26.08300018310547 -78.0479965209961,-26.08300018310547 -78.0479965209961,-26.08300018310547 C-78.0479965209961,-26.08300018310547 -78.0479965209961,0 -78.0479965209961,0z"></path></g><g opacity="1" transform="matrix(1,0,0,1,0,0)"><path fill="rgb(212,160,23)" fill-opacity="1" d=" M-95.65599822998047,-13.413999557495117 C-95.65599822998047,-13.413999557495117 -95.65599822998047,-20.90399932861328 -95.65599822998047,-20.90399932861328 C-95.65599822998047,-20.90399932861328 -89.95500183105469,-20.90399932861328 -89.95500183105469,-20.90399932861328 C-87.16000366210938,-20.90399932861328 -85.44599914550781,-19.636999130249023 -85.44599914550781,-17.17799949645996 C-85.44599914550781,-17.17799949645996 -85.44599914550781,-17.10300064086914 -85.44599914550781,-17.10300064086914 C-85.44599914550781,-14.904999732971191 -87.0479965209961,-13.413999557495117 -89.84300231933594,-13.413999557495117 C-89.84300231933594,-13.413999557495117 -95.65599822998047,-13.413999557495117 -95.65599822998047,-13.413999557495117z M-101.3949966430664,0 C-101.3949966430664,0 -95.65599822998047,0 -95.65599822998047,0 C-95.65599822998047,0 -95.65599822998047,-8.347000122070312 -95.65599822998047,-8.347000122070312 C-95.65599822998047,-8.347000122070312 -91.14700317382812,-8.347000122070312 -91.14700317382812,-8.347000122070312 C-91.14700317382812,-8.347000122070312 -85.55799865722656,0 -85.55799865722656,0 C-85.55799865722656,0 -78.85099792480469,0 -78.85099792480469,0 C-78.85099792480469,0 -85.2229995727539,-9.3149995803833 -85.2229995727539,-9.3149995803833 C-81.90699768066406,-10.545000076293945 -79.63400268554688,-13.1899995803833 -79.63400268554688,-17.400999069213867 C-79.63400268554688,-17.400999069213867 -79.63400268554688,-17.47599983215332 -79.63400268554688,-17.47599983215332 C-79.63400268554688,-19.934999465942383 -80.41600036621094,-21.985000610351562 -81.86900329589844,-23.437999725341797 C-83.58300018310547,-25.152000427246094 -86.15499877929688,-26.08300018310547 -89.47100067138672,-26.08300018310547 C-89.47100067138672,-26.08300018310547 -101.3949966430664,-26.08300018310547 -101.3949966430664,-26.08300018310547 C-101.3949966430664,-26.08300018310547 -101.3949966430664,0 -101.3949966430664,0z"></path></g><g opacity="1" transform="matrix(1,0,0,1,0,0)"><path fill="rgb(212,160,23)" fill-opacity="1" d=" M-115.08200073242188,0.4099999964237213 C-108.0770034790039,0.4099999964237213 -103.64299774169922,-3.4649999141693115 -103.64299774169922,-11.364999771118164 C-103.64299774169922,-11.364999771118164 -103.64299774169922,-26.08300018310547 -103.64299774169922,-26.08300018310547 C-103.64299774169922,-26.08300018310547 -109.38099670410156,-26.08300018310547 -109.38099670410156,-26.08300018310547 C-109.38099670410156,-26.08300018310547 -109.38099670410156,-11.140999794006348 -109.38099670410156,-11.140999794006348 C-109.38099670410156,-7.005000114440918 -111.50499725341797,-4.88100004196167 -115.00800323486328,-4.88100004196167 C-118.51100158691406,-4.88100004196167 -120.63400268554688,-7.079999923706055 -120.63400268554688,-11.32800006866455 C-120.63400268554688,-11.32800006866455 -120.63400268554688,-26.08300018310547 -120.63400268554688,-26.08300018310547 C-120.63400268554688,-26.08300018310547 -126.37200164794922,-26.08300018310547 -126.37200164794922,-26.08300018310547 C-126.37200164794922,-26.08300018310547 -126.37200164794922,-11.178999900817871 -126.37200164794922,-11.178999900817871 C-126.37200164794922,-3.503000020980835 -122.08699798583984,0.4099999964237213 -115.08200073242188,0.4099999964237213z"></path></g><g opacity="1" transform="matrix(1,0,0,1,0,0)"><path fill="rgb(212,160,23)" fill-opacity="1" d=" M-141.26499938964844,-4.843999862670898 C-145.88499450683594,-4.843999862670898 -149.16400146484375,-8.571000099182129 -149.16400146484375,-13.041999816894531 C-149.16400146484375,-13.041999816894531 -149.16400146484375,-13.116000175476074 -149.16400146484375,-13.116000175476074 C-149.16400146484375,-17.586999893188477 -145.95899963378906,-21.23900032043457 -141.33900451660156,-21.23900032043457 C-136.718994140625,-21.23900032043457 -133.44000244140625,-17.51300048828125 -133.44000244140625,-13.041999816894531 C-133.44000244140625,-13.041999816894531 -133.44000244140625,-12.967000007629395 -133.44000244140625,-12.967000007629395 C-133.44000244140625,-8.496000289916992 -136.64500427246094,-4.843999862670898 -141.26499938964844,-4.843999862670898z M-141.33900451660156,0.44699999690055847 C-133.2899932861328,0.44699999690055847 -127.44100189208984,-5.626999855041504 -127.44100189208984,-13.041999816894531 C-127.44100189208984,-13.041999816894531 -127.44100189208984,-13.116000175476074 -127.44100189208984,-13.116000175476074 C-127.44100189208984,-20.5310001373291 -133.21600341796875,-26.5310001373291 -141.26499938964844,-26.5310001373291 C-149.31399536132812,-26.5310001373291 -155.16400146484375,-20.457000732421875 -155.16400146484375,-13.041999816894531 C-155.16400146484375,-13.041999816894531 -155.16400146484375,-12.967000007629395 -155.16400146484375,-12.967000007629395 C-155.16400146484375,-5.552000045776367 -149.38800048828125,0.44699999690055847 -141.33900451660156,0.44699999690055847z"></path></g><g opacity="1" transform="matrix(1,0,0,1,0,0)"><path fill="rgb(212,160,23)" fill-opacity="1" d=" M-165.54800415039062,0.37299999594688416 C-162.71600341796875,0.37299999594688416 -160.3679962158203,-0.44699999690055847 -158.76600646972656,-2.0490000247955322 C-157.2010040283203,-3.614000082015991 -156.3070068359375,-5.923999786376953 -156.3070068359375,-9.017000198364258 C-156.3070068359375,-9.017000198364258 -156.3070068359375,-26.08300018310547 -156.3070068359375,-26.08300018310547 C-156.3070068359375,-26.08300018310547 -162.19400024414062,-26.08300018310547 -162.19400024414062,-26.08300018310547 C-162.19400024414062,-26.08300018310547 -162.19400024414062,-9.277999877929688 -162.19400024414062,-9.277999877929688 C-162.19400024414062,-6.260000228881836 -163.53599548339844,-4.955999851226807 -165.69700622558594,-4.955999851226807 C-167.5229949951172,-4.955999851226807 -168.9759979248047,-5.923999786376953 -170.46600341796875,-7.564000129699707 C-170.46600341796875,-7.564000129699707 -174.08099365234375,-3.5399999618530273 -174.08099365234375,-3.5399999618530273 C-172.29200744628906,-1.4160000085830688 -169.61000061035156,0.37299999594688416 -165.54800415039062,0.37299999594688416z"></path></g></g><g style="display: block;" transform="matrix(0.924780011177063,0,0,0.924780011177063,1007,509)" opacity="1"><g opacity="1" transform="matrix(1,0,0,1,0,0)"><path fill="rgb(212,160,23)" fill-opacity="1" d=" M192,-317 C171.78399658203125,-293.41400146484375 205,-268 205,-268 C205,-268 238,-238 238,-238 C238,-238 265,-264 265,-264 C265,-264 297,-291 281,-315 C265,-339 237.5,-314.5 237.5,-314.5 C237.5,-314.5 210,-338 192,-317z"></path></g></g><g style="display: block;" transform="matrix(1,0,0,1,940.2119750976562,765)" opacity="1"><g opacity="1" transform="matrix(0.851360023021698,0,0,0.7024400234222412,466.1820068359375,171.04299926757812)"><path fill="rgb(212,160,23)" fill-opacity="1" d=" M85.73650360107422,-34.17599868774414 C85.73650360107422,-34.17599868774414 85.73650360107422,34.17599868774414 85.73650360107422,34.17599868774414 C85.73650360107422,34.17599868774414 -85.73650360107422,34.17599868774414 -85.73650360107422,34.17599868774414 C-85.73650360107422,34.17599868774414 -85.73650360107422,-34.17599868774414 -85.73650360107422,-34.17599868774414 C-85.73650360107422,-34.17599868774414 85.73650360107422,-34.17599868774414 85.73650360107422,-34.17599868774414z"></path></g></g><g style="display: block;" transform="matrix(1,0,0,1,943.2119750976562,653)" opacity="1"><g opacity="1" transform="matrix(0.851360023021698,0,0,0.7024400234222412,466.1820068359375,171.04299926757812)"><path fill="rgb(212,160,23)" fill-opacity="1" d=" M85.73650360107422,-34.17599868774414 C85.73650360107422,-34.17599868774414 85.73650360107422,34.17599868774414 85.73650360107422,34.17599868774414 C85.73650360107422,34.17599868774414 -85.73650360107422,34.17599868774414 -85.73650360107422,34.17599868774414 C-85.73650360107422,34.17599868774414 -85.73650360107422,-34.17599868774414 -85.73650360107422,-34.17599868774414 C-85.73650360107422,-34.17599868774414 85.73650360107422,-34.17599868774414 85.73650360107422,-34.17599868774414z"></path></g></g><g style="display: block;" transform="matrix(1,0,0,1,940.2119750976562,540)" opacity="1"><g opacity="1" transform="matrix(0.851360023021698,0,0,0.7024400234222412,466.1820068359375,171.04299926757812)"><path fill="rgb(212,160,23)" fill-opacity="1" d=" M85.73650360107422,-34.17599868774414 C85.73650360107422,-34.17599868774414 85.73650360107422,34.17599868774414 85.73650360107422,34.17599868774414 C85.73650360107422,34.17599868774414 -85.73650360107422,34.17599868774414 -85.73650360107422,34.17599868774414 C-85.73650360107422,34.17599868774414 -85.73650360107422,-34.17599868774414 -85.73650360107422,-34.17599868774414 C-85.73650360107422,-34.17599868774414 85.73650360107422,-34.17599868774414 85.73650360107422,-34.17599868774414z"></path></g></g><g style="display: block;" transform="matrix(0.6403999924659729,0,0,0.6403999924659729,-726.5391845703125,-72.63201904296875)" opacity="1"><g opacity="1" transform="matrix(0.9795399904251099,0,0,0.9795399904251099,3544.242919921875,1224.93701171875)"><path fill="rgb(212,160,23)" fill-opacity="1" d=" M-27.757999420166016,67.51100158691406 C-26.156999588012695,66.48999786376953 -24.666000366210938,65.6520004272461 -22.49799919128418,65.14299774169922 C-22.49799919128418,65.14299774169922 -18.58099937438965,65.73999786376953 -17.763999938964844,65.80500030517578 C-16.94700050354004,65.87000274658203 -15.019000053405762,65.77200317382812 -15.131999969482422,64.16500091552734 C-15.244999885559082,62.55699920654297 -16.76300048828125,62.402000427246094 -18.86199951171875,62.612998962402344 C-18.861000061035156,62.4640007019043 -17.56100082397461,8.357000350952148 -17.56100082397461,8.357000350952148 C-17.56100082397461,8.357000350952148 -17.187999725341797,7.084000110626221 -17.187999725341797,7.084000110626221 C-17.187999725341797,7.084000110626221 -17.183000564575195,7.068999767303467 -17.183000564575195,7.068999767303467 C-17.183000564575195,7.068999767303467 -11.49899959564209,6.991000175476074 -11.49899959564209,6.991000175476074 C-3.4149999618530273,6.877999782562256 4.545000076293945,5.876999855041504 12.545000076293945,3.822000026702881 C12.545000076293945,3.822000026702881 13.487000465393066,3.6050000190734863 13.487000465393066,3.6050000190734863 C13.40999984741211,4.276000022888184 12.645000457763672,4.583000183105469 11.026000022888184,5.295000076293945 C12.237000465393066,5.203000068664551 12.906000137329102,5.574999809265137 13.32800006866455,6.158999919891357 C15.005999565124512,5.690999984741211 15.64900016784668,4.297999858856201 15.817999839782715,3.066999912261963 C15.817999839782715,3.066999912261963 15.97599983215332,3.0309998989105225 15.97599983215332,3.0309998989105225 C17.358999252319336,2.811000108718872 18.315000534057617,2.1549999713897705 18.625999450683594,1.659000039100647 C18.625999450683594,1.659000039100647 19.034000396728516,1.590000033378601 19.034000396728516,1.590000033378601 C19.034000396728516,1.590000033378601 19.02400016784668,0.9229999780654907 19.02400016784668,0.9229999780654907 C19.02400016784668,0.9229999780654907 19.132999420166016,0.921999990940094 19.132999420166016,0.921999990940094 C19.132999420166016,0.921999990940094 19.141000747680664,1.590999960899353 19.141000747680664,1.590999960899353 C19.232999801635742,1.5700000524520874 19.32900047302246,1.5479999780654907 19.427000045776367,1.524999976158142 C19.1299991607666,3.9579999446868896 18.874000549316406,6.938000202178955 19.989999771118164,6.922999858856201 C21.236000061035156,6.906000137329102 20.900999069213867,3.0850000381469727 20.523000717163086,1.3200000524520874 C20.51300048828125,1.2949999570846558 20.507999420166016,1.2690000534057617 20.499000549316406,1.2430000305175781 C22.121999740600586,0.7749999761581421 23.892000198364258,0.07599999755620956 23.884000778198242,-0.4729999899864197 C23.878999710083008,-0.8289999961853027 23.110000610351562,-1.2569999694824219 22.12700080871582,-1.6239999532699585 C21.81999969482422,-1.7380000352859497 21.492000579833984,-1.847000002861023 21.15999984741211,-1.9450000524520874 C20.917999267578125,-2.0160000324249268 20.676000595092773,-2.0820000171661377 20.437000274658203,-2.1419999599456787 C20.447999954223633,-2.180000066757202 20.457000732421875,-2.2200000286102295 20.47100067138672,-2.257999897003174 C20.799999237060547,-4.0329999923706055 21.027999877929688,-7.86299991607666 19.783000946044922,-7.84499979019165 C18.6560001373291,-7.828999996185303 19.01099967956543,-4.797999858856201 19.378000259399414,-2.361999988555908 C19.277999877929688,-2.378000020980835 19.179000854492188,-2.3929998874664307 19.086000442504883,-2.4049999713897705 C19.086000442504883,-2.4049999713897705 19.09600067138672,-1.7410000562667847 19.09600067138672,-1.7410000562667847 C19.09600067138672,-1.7410000562667847 18.98699951171875,-1.7389999628067017 18.98699951171875,-1.7389999628067017 C18.98699951171875,-1.7389999628067017 18.97800064086914,-2.4059998989105225 18.97800064086914,-2.4059998989105225 C18.97800064086914,-2.4059998989105225 18.566999435424805,-2.4800000190734863 18.566999435424805,-2.4800000190734863 C18.225000381469727,-3.0940001010894775 17.28700065612793,-3.6459999084472656 15.855999946594238,-3.9030001163482666 C15.855999946594238,-3.9030001163482666 15.763999938964844,-3.924999952316284 15.763999938964844,-3.924999952316284 C15.553999900817871,-5.140999794006348 14.869999885559082,-6.491000175476074 13.197999954223633,-6.9079999923706055 C12.791999816894531,-6.313000202178955 12.131999969482422,-5.921999931335449 10.920000076293945,-5.980000019073486 C12.4399995803833,-5.361999988555908 13.215999603271484,-5.071000099182129 13.395999908447266,-4.497000217437744 C13.395999908447266,-4.497000217437744 12.180999755859375,-4.789999961853027 12.180999755859375,-4.789999961853027 C4.084000110626221,-6.560999870300293 -3.687999963760376,-7.5970001220703125 -11.697999954223633,-7.486000061035156 C-11.697999954223633,-7.486000061035156 -17.413000106811523,-7.4070000648498535 -17.413000106811523,-7.4070000648498535 C-17.413000106811523,-7.4070000648498535 -17.422000885009766,-7.427000045776367 -17.422000885009766,-7.427000045776367 C-17.422000885009766,-7.427000045776367 -17.82900047302246,-8.687999725341797 -17.82900047302246,-8.687999725341797 C-17.82900047302246,-8.687999725341797 -20.659000396728516,-62.558998107910156 -20.659000396728516,-62.558998107910156 C-20.731000900268555,-63.93000030517578 -21.39299964904785,-64.74500274658203 -23.81800079345703,-65.19999694824219 C-26.25200080871582,-65.65699768066406 -28.229000091552734,-66.54900360107422 -29.944000244140625,-67.72899627685547 C-30.94700050354004,-67.927001953125 -31.945999145507812,-67.77799987792969 -32.941001892089844,-67.38999938964844 C-31.632999420166016,-65.87100219726562 -30.20599937438965,-64.0510025024414 -30.334999084472656,-62.64799880981445 C-30.334999084472656,-62.64799880981445 -35.29600143432617,-8.562000274658203 -35.29600143432617,-8.562000274658203 C-35.3650016784668,-8.315999984741211 -36.39699935913086,-7.517000198364258 -37.11199951171875,-7.1539998054504395 C-37.11199951171875,-7.1539998054504395 -37.117000579833984,-7.133999824523926 -37.117000579833984,-7.133999824523926 C-37.117000579833984,-7.133999824523926 -49.5099983215332,-6.961999893188477 -49.5099983215332,-6.961999893188477 C-52.44200134277344,-6.921999931335449 -55.369998931884766,-6.4730000495910645 -58.23899841308594,-5.866000175476074 C-58.23899841308594,-5.866000175476074 -81.52100372314453,-0.9419999718666077 -81.52100372314453,-0.9419999718666077 C-82.11000061035156,-0.8169999718666077 -82.70899963378906,-0.8199999928474426 -83.30400085449219,-0.8479999899864197 C-83.30400085449219,-0.8479999899864197 -85.94300079345703,-17.922000885009766 -85.94300079345703,-17.922000885009766 C-85.98200225830078,-18.173999786376953 -86.11100006103516,-18.354999542236328 -86.31099700927734,-18.5049991607666 C-86.6449966430664,-18.7549991607666 -87.1780014038086,-18.917999267578125 -87.83200073242188,-19.174999237060547 C-87.83200073242188,-19.174999237060547 -87.81300354003906,-17.895999908447266 -87.81300354003906,-17.895999908447266 C-87.81300354003906,-17.895999908447266 -88.25299835205078,-17.889999389648438 -88.25299835205078,-17.889999389648438 C-88.25299835205078,-17.889999389648438 -88.27300262451172,-19.388999938964844 -88.27300262451172,-19.388999938964844 C-88.27300262451172,-19.388999938964844 -90.81400299072266,-20.584999084472656 -90.81400299072266,-20.584999084472656 C-91.20800018310547,-20.68000030517578 -91.70600128173828,-20.71500015258789 -92.1729965209961,-20.707000732421875 C-92.95099639892578,-20.694000244140625 -93.64800262451172,-20.558000564575195 -93.65499877929688,-20.374000549316406 C-93.65499877929688,-20.374000549316406 -94.45800018310547,-0.18400000035762787 -94.45800018310547,-0.18400000035762787 C-94.45800018310547,-0.18400000035762787 -93.6259994506836,-0.1850000023841858 -93.6259994506836,-0.1850000023841858 C-96.04399871826172,0.050999999046325684 -98.50299835205078,0.46700000762939453 -98.49800109863281,0.8809999823570251 C-98.49199676513672,1.2979999780654907 -95.99099731445312,1.659000039100647 -93.55000305175781,1.8329999446868896 C-93.55000305175781,1.8329999446868896 -93.55400085449219,1.8329999446868896 -93.55400085449219,1.8329999446868896 C-93.55400085449219,1.8329999446868896 -94.47799682617188,1.8569999933242798 -94.47799682617188,1.8569999933242798 C-94.47799682617188,1.8569999933242798 -93.11399841308594,22.017000198364258 -93.11399841308594,22.017000198364258 C-93.10900115966797,22.090999603271484 -92.99500274658203,22.15399932861328 -92.80899810791016,22.20199966430664 C-92.71600341796875,22.22599983215332 -92.60399627685547,22.246999740600586 -92.4800033569336,22.26300048828125 C-92.41799926757812,22.270999908447266 -92.35299682617188,22.27899932861328 -92.28600311279297,22.28499984741211 C-92.1500015258789,22.297000885009766 -92.00399780273438,22.30500030517578 -91.85299682617188,22.308000564575195 C-91.4749984741211,22.31599998474121 -91.06099700927734,22.295000076293945 -90.69000244140625,22.23699951171875 C-90.54100036621094,22.214000701904297 -90.4000015258789,22.184999465942383 -90.26899719238281,22.14900016784668 C-90.26899719238281,22.14900016784668 -87.76200103759766,20.884000778198242 -87.76200103759766,20.884000778198242 C-87.76200103759766,20.884000778198242 -87.78199768066406,19.384000778198242 -87.78199768066406,19.384000778198242 C-87.78199768066406,19.384000778198242 -87.34300231933594,19.378000259399414 -87.34300231933594,19.378000259399414 C-87.34300231933594,19.378000259399414 -87.32499694824219,20.658000946044922 -87.32499694824219,20.658000946044922 C-87.00199890136719,20.520000457763672 -86.70999908447266,20.406999588012695 -86.45600128173828,20.29599952697754 C-86.3030014038086,20.229000091552734 -86.16500091552734,20.163000106811523 -86.04299926757812,20.093000411987305 C-85.96299743652344,20.04599952697754 -85.88899993896484,19.99799919128418 -85.8239974975586,19.945999145507812 C-85.69300079345703,19.841999053955078 -85.59500122070312,19.72599983215332 -85.53399658203125,19.583999633789062 C-85.50399780273438,19.513999938964844 -85.48500061035156,19.437000274658203 -85.4739990234375,19.351999282836914 C-85.4739990234375,19.351999282836914 -83.31300354003906,2.257999897003174 -83.31300354003906,2.257999897003174 C-82.68599700927734,2.234999895095825 -82.04900360107422,2.183000087738037 -81.43299865722656,2.2980000972747803 C-81.43299865722656,2.2980000972747803 -58.04600143432617,6.691999912261963 -58.04600143432617,6.691999912261963 C-55.172000885009766,7.23199987411499 -52.23400115966797,7.554999828338623 -49.308998107910156,7.513999938964844 C-49.308998107910156,7.513999938964844 -36.90299987792969,7.3420000076293945 -36.90299987792969,7.3420000076293945 C-36.90299987792969,7.3420000076293945 -36.87900161743164,7.35699987411499 -36.87900161743164,7.35699987411499 C-36.154998779296875,7.699999809265137 -35.099998474121094,8.470000267028809 -35.02399826049805,8.71500015258789 C-35.02399826049805,8.71500015258789 -28.56800079345703,62.641998291015625 -28.56800079345703,62.641998291015625 C-28.399999618530273,64.04100036621094 -29.774999618530273,65.89900207519531 -31.041000366210938,67.45500183105469 C-30.11199951171875,67.75 -28.631000518798828,68.06800079345703 -27.757999420166016,67.51100158691406z"></path></g></g><g style="display: block;" transform="matrix(0.6403999924659729,0,0,0.6403999924659729,-726.5391845703125,-72.63201904296875)" opacity="1"><g opacity="1" transform="matrix(0.9074199795722961,0,0,0.9074199795722961,3544.97705078125,1406.4969482421875)"><path fill="rgb(212,160,23)" fill-opacity="1" d=" M33.70199966430664,-5.702000141143799 C33.70600128173828,-7.861999988555908 30.780000686645508,-9.402999877929688 27.989999771118164,-10.489999771118164 C26.69499969482422,-10.994000434875488 25.415000915527344,-11.527000427246094 24.07900047302246,-11.880999565124512 C20.71299934387207,-12.772000312805176 15.951000213623047,-13.07699966430664 12.89900016784668,-13.081999778747559 C12.89900016784668,-13.081999778747559 -21.136999130249023,-13.121000289916992 -21.136999130249023,-13.121000289916992 C-21.136999130249023,-13.121000289916992 -25.40999984741211,-72.36299896240234 -25.40999984741211,-72.36299896240234 C-25.45599937438965,-72.99800109863281 -25.7189998626709,-73.88899993896484 -26.45400047302246,-73.88800048828125 C-26.45400047302246,-73.88800048828125 -27.608999252319336,-73.88600158691406 -27.608999252319336,-73.88600158691406 C-27.608999252319336,-73.88600158691406 -27.615999221801758,-73.9229965209961 -27.615999221801758,-73.9229965209961 C-27.615999221801758,-73.9229965209961 -29.16699981689453,-73.92500305175781 -29.16699981689453,-73.92500305175781 C-29.16699981689453,-73.92500305175781 -29.17300033569336,-73.88899993896484 -29.17300033569336,-73.88899993896484 C-29.17300033569336,-73.88899993896484 -32.25400161743164,-73.89700317382812 -32.25400161743164,-73.89700317382812 C-32.36000061035156,-73.89700317382812 -32.44599914550781,-73.8550033569336 -32.46500015258789,-73.73999786376953 C-32.46500015258789,-73.73999786376953 -41.09299850463867,-21.038000106811523 -41.09299850463867,-21.038000106811523 C-43.26900100708008,-21.06800079345703 -47.185001373291016,-20.975000381469727 -48.88999938964844,-20.892000198364258 C-50.702999114990234,-20.804000854492188 -52.55099868774414,-20.60099983215332 -53.73099899291992,-20.319000244140625 C-55.178001403808594,-19.974000930786133 -56.43600082397461,-19.604999542236328 -57.810001373291016,-19.04199981689453 C-57.92900085449219,-18.268999099731445 -57.75600051879883,-16.399999618530273 -57.72800064086914,-15.701000213623047 C-57.72800064086914,-15.701000213623047 -63.6349983215332,-14.852999687194824 -63.6349983215332,-14.852999687194824 C-63.6349983215332,-14.852999687194824 -66.44400024414062,-10.776000022888184 -66.44400024414062,-10.776000022888184 C-71.43499755859375,-9.918000221252441 -76.5719985961914,-8.746000289916992 -80.68199920654297,-7.513999938964844 C-80.68199920654297,-7.513999938964844 -92.0770034790039,-34.263999938964844 -92.0770034790039,-34.263999938964844 C-92.16100311279297,-34.46200180053711 -92.4280014038086,-34.51900100708008 -92.53099822998047,-34.52199935913086 C-92.53099822998047,-34.52199935913086 -92.53399658203125,-33.231998443603516 -92.53399658203125,-33.231998443603516 C-92.53399658203125,-33.231998443603516 -92.88899993896484,-33.231998443603516 -92.88899993896484,-33.231998443603516 C-92.88899993896484,-33.231998443603516 -92.90399932861328,-34.08000183105469 -92.90399932861328,-34.08000183105469 C-92.90899658203125,-34.4370002746582 -93.43900299072266,-34.52899932861328 -93.70600128173828,-34.53799819946289 C-95.02100372314453,-34.584999084472656 -96.48799896240234,-34.48400115966797 -97.62899780273438,-34.32899856567383 C-97.72000122070312,-34.316001892089844 -97.79100036621094,-34.24800109863281 -97.76599884033203,-34.1510009765625 C-97.76599884033203,-34.1510009765625 -93.1050033569336,-6.0329999923706055 -93.1050033569336,-6.0329999923706055 C-93.1050033569336,-6.0329999923706055 -94.3489990234375,-5.875 -94.3489990234375,-5.875 C-94.3489990234375,-5.875 -93.1050033569336,-5.714000225067139 -93.1050033569336,-5.714000225067139 C-93.1050033569336,-5.714000225067139 -97.84300231933594,22.391000747680664 -97.84300231933594,22.391000747680664 C-97.86799621582031,22.488000869750977 -97.7959976196289,22.558000564575195 -97.70600128173828,22.56999969482422 C-96.56600189208984,22.726999282836914 -95.0989990234375,22.832000732421875 -93.78399658203125,22.788999557495117 C-93.51699829101562,22.780000686645508 -92.98600006103516,22.69099998474121 -92.97899627685547,22.333999633789062 C-92.97899627685547,22.333999633789062 -92.96199798583984,21.485000610351562 -92.96199798583984,21.485000610351562 C-92.96199798583984,21.485000610351562 -92.60800170898438,21.485000610351562 -92.60800170898438,21.485000610351562 C-92.60800170898438,21.485000610351562 -92.60900115966797,22.775999069213867 -92.60900115966797,22.775999069213867 C-92.50599670410156,22.774999618530273 -92.26200103759766,22.687000274658203 -92.1760025024414,22.48900032043457 C-92.1760025024414,22.48900032043457 -80.68699645996094,-4.198999881744385 -80.68699645996094,-4.198999881744385 C-76.5790023803711,-2.9560000896453857 -71.44499969482422,-1.7699999809265137 -66.45600128173828,-0.8989999890327454 C-66.45600128173828,-0.8989999890327454 -63.65999984741211,3.186000108718872 -63.65999984741211,3.186000108718872 C-63.65999984741211,3.186000108718872 -57.755001068115234,4.047999858856201 -57.755001068115234,4.047999858856201 C-57.78499984741211,4.747000217437744 -57.96200180053711,6.617000102996826 -57.84600067138672,7.389999866485596 C-56.472999572753906,7.955999851226807 -55.21500015258789,8.32800006866455 -53.76900100708008,8.677000045776367 C-52.590999603271484,8.961999893188477 -50.74300003051758,9.170000076293945 -48.930999755859375,9.263999938964844 C-47.2239990234375,9.35200023651123 -43.310001373291016,9.454999923706055 -41.1349983215332,9.430999755859375 C-41.1349983215332,9.430999755859375 -32.64899826049805,62.15700149536133 -32.64899826049805,62.15700149536133 C-32.630001068115234,62.27199935913086 -32.54499816894531,62.3129997253418 -32.43899917602539,62.3129997253418 C-32.43899917602539,62.3129997253418 -29.35700035095215,62.314998626708984 -29.35700035095215,62.314998626708984 C-29.35700035095215,62.314998626708984 -29.35099983215332,62.35100173950195 -29.35099983215332,62.35100173950195 C-29.35099983215332,62.35100173950195 -27.799999237060547,62.35200119018555 -27.799999237060547,62.35200119018555 C-27.799999237060547,62.35200119018555 -27.79199981689453,62.316001892089844 -27.79199981689453,62.316001892089844 C-27.79199981689453,62.316001892089844 -26.63800048828125,62.31999969482422 -26.63800048828125,62.31999969482422 C-25.902999877929688,62.323001861572266 -25.636999130249023,61.43299865722656 -25.590999603271484,60.79800033569336 C-25.590999603271484,60.79800033569336 -21.1560001373291,1.5679999589920044 -21.1560001373291,1.5679999589920044 C-21.1560001373291,1.5679999589920044 12.878999710083008,1.621000051498413 12.878999710083008,1.621000051498413 C15.932000160217285,1.625 20.694000244140625,1.3320000171661377 24.062999725341797,0.45100000500679016 C25.39900016784668,0.10199999809265137 26.68000030517578,-0.42800000309944153 27.976999282836914,-0.9300000071525574 C30.768999099731445,-2.009999990463257 33.69900131225586,-3.5409998893737793 33.70199966430664,-5.702000141143799z"></path></g></g><g style="display: block;" transform="matrix(0.6403999924659729,0,0,0.6403999924659729,-726.5391845703125,-72.63201904296875)" opacity="1"><g opacity="1" transform="matrix(1,0,0,1,3555.68896484375,1583.0570068359375)"><path fill="rgb(212,160,23)" fill-opacity="1" d=" M-25.764999389648438,-3.5290000438690186 C-25.764999389648438,-3.5290000438690186 2.3259999752044678,-3.489000082015991 2.3259999752044678,-3.489000082015991 C8.244999885559082,-4.125999927520752 13.276000022888184,-5.519999980926514 17.077999114990234,-7.620999813079834 C18.621999740600586,-8.473999977111816 21.43400001525879,-10.02299976348877 21.434999465942383,-10.630000114440918 C21.43600082397461,-11.237000465393066 18.628999710083008,-12.793000221252441 17.086999893188477,-13.651000022888184 C13.291000366210938,-15.763999938964844 8.263999938964844,-17.170000076293945 2.3469998836517334,-17.825000762939453 C2.3469998836517334,-17.825000762939453 -25.764999389648438,-17.864999771118164 -25.764999389648438,-17.864999771118164 C-25.764999389648438,-17.864999771118164 -30.29199981689453,-20.572999954223633 -30.29199981689453,-20.572999954223633 C-30.29199981689453,-20.572999954223633 -38.066001892089844,-32.349998474121094 -38.066001892089844,-32.349998474121094 C-38.066001892089844,-32.349998474121094 -53.8390007019043,-64.40899658203125 -53.8390007019043,-64.40899658203125 C-54.54199981689453,-65.83599853515625 -55.082000732421875,-66.79399871826172 -57.970001220703125,-66.79900360107422 C-57.970001220703125,-66.79900360107422 -59.875,-68.9489974975586 -59.875,-68.9489974975586 C-59.875,-68.9489974975586 -62.2400016784668,-68.9520034790039 -62.2400016784668,-68.9520034790039 C-62.2400016784668,-68.9520034790039 -60.26599884033203,-66.3759994506836 -60.26599884033203,-66.3759994506836 C-60.26599884033203,-66.3759994506836 -52.83100128173828,-40.874000549316406 -52.83100128173828,-40.874000549316406 C-53.80500030517578,-40.875999450683594 -55.57400131225586,-40.7859992980957 -55.57400131225586,-40.361000061035156 C-55.57500076293945,-39.9370002746582 -53.44499969482422,-39.64099884033203 -52.47100067138672,-39.638999938964844 C-52.47100067138672,-39.638999938964844 -50.27799987792969,-32.11899948120117 -50.27799987792969,-32.11899948120117 C-50.27799987792969,-32.11899948120117 -50.28499984741211,-27.006000518798828 -50.28499984741211,-27.006000518798828 C-51.25899887084961,-27.006999969482422 -53.02799987792969,-26.91699981689453 -53.02899932861328,-26.492000579833984 C-53.029998779296875,-26.06800079345703 -51.26100158691406,-25.861000061035156 -50.2869987487793,-25.858999252319336 C-50.2869987487793,-25.858999252319336 -50.29600143432617,-19.160999298095703 -50.29600143432617,-19.160999298095703 C-50.29600143432617,-19.160999298095703 -54.13399887084961,-17.9060001373291 -54.13399887084961,-17.9060001373291 C-54.13399887084961,-17.9060001373291 -54.8650016784668,-17.906999588012695 -54.8650016784668,-17.906999588012695 C-55.25199890136719,-17.908000946044922 -57.89400100708008,-17.635000228881836 -61.58300018310547,-17.225000381469727 C-61.58300018310547,-17.225000381469727 -62.15299987792969,-18.349000930786133 -62.15299987792969,-18.349000930786133 C-62.15299987792969,-18.349000930786133 -61.694000244140625,-18.349000930786133 -61.694000244140625,-18.349000930786133 C-60.66600036621094,-18.347000122070312 -60.22999954223633,-19.19099998474121 -60.22800064086914,-20.222000122070312 C-60.22800064086914,-20.222000122070312 -60.2239990234375,-23.61400032043457 -60.2239990234375,-23.61400032043457 C-60.22200012207031,-24.645000457763672 -60.652000427246094,-25.48900032043457 -61.683998107910156,-25.490999221801758 C-61.683998107910156,-25.490999221801758 -72.59200286865234,-25.506999969482422 -72.59200286865234,-25.506999969482422 C-73.5199966430664,-25.509000778198242 -74.35099792480469,-25.433000564575195 -75.08799743652344,-25.297000885009766 C-75.08799743652344,-25.297000885009766 -75.0780029296875,-25.299999237060547 -75.0780029296875,-25.299999237060547 C-78.18499755859375,-25.304000854492188 -81.13099670410156,-25.55299949645996 -84.16000366210938,-24.441999435424805 C-84.16000366210938,-24.441999435424805 -80.18599700927734,-23.698999404907227 -80.18599700927734,-23.698999404907227 C-80.18599700927734,-23.698999404907227 -80.19100189208984,-20.204999923706055 -80.19100189208984,-20.204999923706055 C-80.19100189208984,-20.204999923706055 -84.16699981689453,-19.472999572753906 -84.16699981689453,-19.472999572753906 C-82.4530029296875,-18.839000701904297 -80.76499938964844,-18.641000747680664 -79.05699920654297,-18.589000701904297 C-79.05699920654297,-18.589000701904297 -79.06099700927734,-15.166000366210938 -79.06099700927734,-15.166000366210938 C-81.58200073242188,-14.854000091552734 -83.91200256347656,-14.553999900817871 -85.81199645996094,-14.295999526977539 C-85.86799621582031,-14.288000106811523 -85.9219970703125,-14.281000137329102 -85.97799682617188,-14.27299976348877 C-85.97799682617188,-14.27299976348877 -94.45899963378906,-27.96299934387207 -94.45899963378906,-27.96299934387207 C-95.58899688720703,-29.78700065612793 -95.91999816894531,-30.986000061035156 -100.13999938964844,-30.992000579833984 C-100.13999938964844,-30.992000579833984 -93.74600219726562,-12.489999771118164 -93.74600219726562,-12.489999771118164 C-94.91699981689453,-12.074000358581543 -95.78099822998047,-11.657999992370605 -96.26200103759766,-11.295999526977539 C-97.98300170898438,-11.154000282287598 -99.15699768066406,-10.98900032043457 -100.87699890136719,-10.805000305175781 C-99.15799713134766,-10.616000175476074 -97.98500061035156,-10.446000099182129 -96.26399993896484,-10.29800033569336 C-95.78399658203125,-9.934000015258789 -94.91999816894531,-9.515999794006348 -93.75,-9.097999572753906 C-93.75,-9.097999572753906 -100.1969985961914,9.385000228881836 -100.1969985961914,9.385000228881836 C-95.97699737548828,9.390999794006348 -95.64299774169922,8.192999839782715 -94.50800323486328,6.372000217437744 C-94.50800323486328,6.372000217437744 -85.98899841308594,-7.293000221252441 -85.98899841308594,-7.293000221252441 C-85.93299865722656,-7.283999919891357 -85.87899780273438,-7.2769999504089355 -85.822998046875,-7.269000053405762 C-83.9229965209961,-7.005000114440918 -81.59400177001953,-6.699999809265137 -79.0739974975586,-6.380000114440918 C-79.0739974975586,-6.380000114440918 -79.0780029296875,-2.9579999446868896 -79.0780029296875,-2.9579999446868896 C-80.78500366210938,-2.9100000858306885 -82.47599792480469,-2.7170000076293945 -84.19200134277344,-2.0869998931884766 C-84.19200134277344,-2.0869998931884766 -80.21800231933594,-1.343999981880188 -80.21800231933594,-1.343999981880188 C-80.21800231933594,-1.343999981880188 -80.2229995727539,2.1500000953674316 -80.2229995727539,2.1500000953674316 C-80.2229995727539,2.1500000953674316 -84.1989974975586,2.88100004196167 -84.1989974975586,2.88100004196167 C-81.1729965209961,4.000999927520752 -78.2249984741211,3.76200008392334 -75.11900329589844,3.7660000324249268 C-75.11900329589844,3.7660000324249268 -75.12899780273438,3.763000011444092 -75.12899780273438,3.763000011444092 C-74.39299774169922,3.9000000953674316 -73.56199645996094,3.9779999256134033 -72.63500213623047,3.9790000915527344 C-72.63500213623047,3.9790000915527344 -61.72700119018555,3.994999885559082 -61.72700119018555,3.994999885559082 C-60.69499969482422,3.996000051498413 -60.26100158691406,3.1519999504089355 -60.2599983215332,2.121000051498413 C-60.2599983215332,2.121000051498413 -60.255001068115234,-1.2699999809265137 -60.255001068115234,-1.2699999809265137 C-60.25400161743164,-2.3010001182556152 -60.6870002746582,-3.1459999084472656 -61.715999603271484,-3.1480000019073486 C-61.715999603271484,-3.1480000019073486 -62.17499923706055,-3.1489999294281006 -62.17499923706055,-3.1489999294281006 C-62.17499923706055,-3.1489999294281006 -61.60200119018555,-4.271999835968018 -61.60200119018555,-4.271999835968018 C-57.91400146484375,-3.8510000705718994 -55.27299880981445,-3.571000099182129 -54.8849983215332,-3.569999933242798 C-54.8849983215332,-3.569999933242798 -54.17100143432617,-3.569000005722046 -54.17100143432617,-3.569000005722046 C-54.17100143432617,-3.569000005722046 -50.32099914550781,-2.2669999599456787 -50.32099914550781,-2.2669999599456787 C-50.32099914550781,-2.2669999599456787 -50.33100128173828,4.431000232696533 -50.33100128173828,4.431000232696533 C-51.30400085449219,4.428999900817871 -53.07400131225586,4.631999969482422 -53.07500076293945,5.057000160217285 C-53.07500076293945,5.480999946594238 -51.305999755859375,5.576000213623047 -50.332000732421875,5.577000141143799 C-50.332000732421875,5.577000141143799 -50.3390007019043,10.6899995803833 -50.3390007019043,10.6899995803833 C-50.3390007019043,10.6899995803833 -52.553001403808594,18.204999923706055 -52.553001403808594,18.204999923706055 C-53.527000427246094,18.202999114990234 -55.65800094604492,18.492000579833984 -55.659000396728516,18.91699981689453 C-55.65999984741211,19.341999053955078 -53.89099884033203,19.43600082397461 -52.91699981689453,19.437999725341797 C-52.91699981689453,19.437999725341797 -60.42499923706055,44.91899871826172 -60.42499923706055,44.91899871826172 C-60.42499923706055,44.91899871826172 -62.40599822998047,47.48899841308594 -62.40599822998047,47.48899841308594 C-62.40599822998047,47.48899841308594 -60.04100036621094,47.49300003051758 -60.04100036621094,47.49300003051758 C-60.04100036621094,47.49300003051758 -58.130001068115234,45.3489990234375 -58.130001068115234,45.3489990234375 C-55.242000579833984,45.35300064086914 -54.69900131225586,44.39500045776367 -53.99300003051758,42.970001220703125 C-53.99300003051758,42.970001220703125 -38.12699890136719,10.956000328063965 -38.12699890136719,10.956000328063965 C-38.12699890136719,10.956000328063965 -30.31999969482422,-0.7979999780654907 -30.31999969482422,-0.7979999780654907 C-30.31999969482422,-0.7979999780654907 -25.764999389648438,-3.5290000438690186 -25.764999389648438,-3.5290000438690186z"></path></g></g></g></svg>